<svg width="512" height="512" viewBox="0 0 512 512" fill="none" xmlns="http://www.w3.org/2000/svg">
  <rect width="512" height="512" rx="108" fill="#000000"/>
  <rect x="76" y="76" width="132" height="132" rx="24" fill="#FFFFFF"/>
  <rect x="104" y="104" width="76" height="76" rx="12" fill="#000000"/>
  <rect x="304" y="76" width="132" height="132" rx="24" fill="#FFFFFF"/>
  <rect x="332" y="104" width="76" height="76" rx="12" fill="#000000"/>
  <rect x="76" y="304" width="132" height="132" rx="24" fill="#FFFFFF"/>
  <rect x="104" y="332" width="76" height="76" rx="12" fill="#000000"/>
  <rect x="288" y="288" width="28" height="28" rx="8" fill="#0071E3"/>
  <rect x="332" y="288" width="72" height="28" rx="8" fill="#0071E3"/>
  <rect x="288" y="332" width="28" height="72" rx="8" fill="#0071E3"/>
  <rect x="332" y="348" width="28" height="88" rx="8" fill="#FFFFFF"/>
  <rect x="376" y="332" width="28" height="44" rx="8" fill="#FFFFFF"/>
  <rect x="392" y="392" width="44" height="44" rx="12" fill="#0071E3"/>
</svg>
